<svg width="18" height="18" viewBox="0 0 18 18" fill="none" xmlns="http://www.w3.org/2000/svg">
<path d="M16 0H2C0.895 0 0 0.895 0 2V16C0 17.105 0.895 18 2 18H7.419C7.464 18 7.5 17.964 7.5 17.919V11.96C7.5 11.915 7.464 11.879 7.419 11.879H5.08C5.035 11.879 4.999 11.843 4.999 11.798V9.079C4.999 9.034 5.035 8.998 5.08 8.998H7.419C7.464 8.998 7.5 8.962 7.5 8.917V6.803C7.5 4.498 8.636 3.223 10.567 3.017C10.779 2.994 10.993 2.991 11.206 3.008C11.93 3.018 12.715 3.079 13.43 3.191C13.47 3.197 13.499 3.232 13.499 3.272V5.497H12.18C11.499 5.497 10.499 5.997 10.499 7.048V8.917C10.499 8.962 10.534 8.998 10.579 8.998H13.167C13.216 8.998 13.254 9.042 13.247 9.091L12.83 11.81C12.824 11.849 12.79 11.878 12.75 11.878H10.579C10.534 11.878 10.498 11.914 10.498 11.959V17.918C10.498 17.963 10.534 17.999 10.579 17.999H15.999C17.104 17.999 17.999 17.104 17.999 15.999V2C17.999 0.895 17.104 0 15.999 0H16Z" fill="#505759"/>
</svg>
