<svg width="18" height="18" viewBox="0 0 18 18" fill="none" xmlns="http://www.w3.org/2000/svg">
<path d="M9.003 5.99975C7.349 5.99975 6.003 7.34575 6.003 8.99975C6.003 10.6538 7.352 11.9998 9.003 11.9998C10.654 11.9998 12.004 10.6538 12.004 8.99975C12.004 7.34575 10.658 5.99975 9.003 5.99975Z" fill="#505759"/>
<path d="M17.94 5.28875C17.872 3.84675 17.542 2.56975 16.487 1.51675C15.434 0.46475 14.157 0.13575 12.715 0.06375C11.229 -0.02125 6.774 -0.02125 5.288 0.06375C3.851 0.13175 2.573 0.46075 1.516 1.51375C0.46 2.56575 0.135 3.84375 0.063 5.28575C-0.021 6.77175 -0.021 11.2257 0.063 12.7118C0.131 14.1538 0.461 15.4307 1.516 16.4837C2.573 17.5357 3.846 17.8647 5.288 17.9377C6.774 18.0217 11.229 18.0217 12.715 17.9377C14.157 17.8697 15.434 17.5397 16.487 16.4837C17.539 15.4317 17.869 14.1538 17.94 12.7118C18.024 11.2257 18.024 6.77575 17.94 5.28975V5.28875ZM9.003 13.6147C6.449 13.6147 4.388 11.5548 4.388 8.99975C4.388 6.44475 6.449 4.38475 9.003 4.38475C11.557 4.38475 13.618 6.44475 13.618 8.99975C13.618 11.5548 11.557 13.6147 9.003 13.6147ZM13.807 5.27275C13.21 5.27275 12.731 4.79075 12.731 4.19675C12.731 3.60275 13.213 3.12075 13.807 3.12075C14.401 3.12075 14.884 3.60275 14.884 4.19675C14.884 4.79575 14.402 5.27275 13.807 5.27275Z" fill="#505759"/>
</svg>
