<svg width="18" height="18" viewBox="0 0 16 16" fill="none" xmlns="http://www.w3.org/2000/svg">
<path d="M1.921 3.86C2.984 3.847 3.839 2.983 3.841 1.921C3.841 1.235 3.475 0.6 2.881 0.257C2.589 0.089 2.258 0 1.921 0C0.86 0 0 0.86 0 1.921C0.002 2.984 0.858 3.849 1.921 3.86Z" fill="#505759"/>
<path d="M0.267 5.317H3.581V15.999H0.267V5.317Z" fill="#505759"/>
<path d="M8.887 6.774H8.841V5.317H5.658V15.999H8.972V10.713C8.972 9.316 9.236 7.97 10.961 7.97C12.66 7.97 12.686 9.56 12.686 10.799V15.999H16V10.132C16 7.26 15.383 5.05 12.025 5.05C10.741 5.003 9.535 5.665 8.887 6.775V6.774Z" fill="#505759"/>
</svg>
