<svg width="18" height="18" viewBox="0 0 20 15" fill="none" xmlns="http://www.w3.org/2000/svg">
<path d="M17.8116 0.425441C15.2196 0.113441 12.6086 -0.0265591 9.9986 0.00444089C7.3876 -0.0275591 4.7776 0.113441 2.1856 0.425441C1.3206 0.660441 0.646601 1.33944 0.417601 2.20544C0.129601 3.80344 -0.0103989 5.42544 0.000601139 7.04944C-0.00939886 8.67444 0.129601 10.2964 0.417601 11.8944C0.649601 12.7534 1.3246 13.4214 2.1856 13.6454C4.7776 13.9574 7.3886 14.0974 9.9986 14.0664C12.6096 14.0984 15.2196 13.9574 17.8116 13.6454C18.6726 13.4224 19.3476 12.7534 19.5796 11.8944C19.8676 10.2954 20.0076 8.67344 19.9976 7.04944C20.0076 5.42544 19.8676 3.80344 19.5796 2.20544C19.3496 1.33944 18.6756 0.661441 17.8116 0.425441ZM7.9536 10.0234V4.07644L13.1806 7.05044L7.9536 10.0234Z" fill="#505759"/>
</svg>
